<svg xmlns="http://www.w3.org/2000/svg" viewBox="0 0 600 500">
  <!-- Main Module Container -->
  <rect x="50" y="20" width="500" height="460" fill="#f0f0f0" stroke="#000" stroke-width="2"/>
  <text x="300" y="50" font-family="Arial" font-size="18" text-anchor="middle" font-weight="bold">Attention Module</text>
  
  <!-- Input Buffer -->
  <rect x="80" y="80" width="160" height="60" fill="#d4e6f1" stroke="#000" stroke-width="1"/>
  <text x="160" y="105" font-family="Arial" font-size="14" text-anchor="middle" font-weight="bold">Input Buffer</text>
  <text x="160" y="125" font-family="Arial" font-size="12" text-anchor="middle">(Q, K, V)</text>
  
  <!-- First Matrix Multiplication Unit -->
  <rect x="350" y="80" width="160" height="60" fill="#d5f5e3" stroke="#000" stroke-width="1"/>
  <text x="430" y="105" font-family="Arial" font-size="14" text-anchor="middle" font-weight="bold">Matrix Mult. Unit</text>
  <text x="430" y="125" font-family="Arial" font-size="12" text-anchor="middle">(Q×K^T)</text>
  
  <!-- Arrow from Input Buffer to Matrix Mult -->
  <line x1="240" y1="110" x2="350" y2="110" stroke="#000" stroke-width="1.5"/>
  <polygon points="350,110 340,105 340,115" fill="#000"/>
  
  <!-- Scale Circuit -->
  <rect x="350" y="160" width="160" height="60" fill="#d5f5e3" stroke="#000" stroke-width="1"/>
  <text x="430" y="185" font-family="Arial" font-size="14" text-anchor="middle" font-weight="bold">Scale Circuit</text>
  <text x="430" y="205" font-family="Arial" font-size="12" text-anchor="middle">(÷√d_k)</text>
  
  <!-- Arrow from Matrix Mult to Scale Circuit -->
  <line x1="430" y1="140" x2="430" y2="160" stroke="#000" stroke-width="1.5"/>
  <polygon points="430,160 425,150 435,150" fill="#000"/>
  
  <!-- Softmax Unit -->
  <rect x="350" y="240" width="160" height="60" fill="#d5f5e3" stroke="#000" stroke-width="1"/>
  <text x="430" y="270" font-family="Arial" font-size="14" text-anchor="middle" font-weight="bold">Softmax Unit</text>
  
  <!-- Arrow from Scale Circuit to Softmax -->
  <line x1="430" y1="220" x2="430" y2="240" stroke="#000" stroke-width="1.5"/>
  <polygon points="430,240 425,230 435,230" fill="#000"/>
  
  <!-- Second Matrix Multiplication Unit -->
  <rect x="350" y="320" width="160" height="60" fill="#d5f5e3" stroke="#000" stroke-width="1"/>
  <text x="430" y="345" font-family="Arial" font-size="14" text-anchor="middle" font-weight="bold">Matrix Mult. Unit</text>
  <text x="430" y="365" font-family="Arial" font-size="12" text-anchor="middle">(soft×V)</text>
  
  <!-- Arrow from Softmax to Second Matrix Mult -->
  <line x1="430" y1="300" x2="430" y2="320" stroke="#000" stroke-width="1.5"/>
  <polygon points="430,320 425,310 435,310" fill="#000"/>
  
  <!-- Output Buffer -->
  <rect x="80" y="320" width="160" height="60" fill="#d4e6f1" stroke="#000" stroke-width="1"/>
  <text x="160" y="345" font-family="Arial" font-size="14" text-anchor="middle" font-weight="bold">Output Buffer</text>
  
  <!-- Arrow from Second Matrix Mult to Output Buffer -->
  <line x1="350" y1="350" x2="240" y2="350" stroke="#000" stroke-width="1.5"/>
  <polygon points="240,350 250,345 250,355" fill="#000"/>
  
  <!-- Control FSM -->
  <rect x="80" y="400" width="430" height="30" fill="#ebdef0" stroke="#000" stroke-width="1"/>
  <text x="295" y="420" font-family="Arial" font-size="14" text-anchor="middle" font-weight="bold">Control FSM</text>
  
  <!-- Memory Interface -->
  <rect x="80" y="440" width="430" height="30" fill="#ebdef0" stroke="#000" stroke-width="1"/>
  <text x="295" y="460" font-family="Arial" font-size="14" text-anchor="middle" font-weight="bold">Memory Interface</text>
</svg>
