<svg xmlns="http://www.w3.org/2000/svg" viewBox="0 0 600 500">
  <!-- Main Unit Container -->
  <rect x="50" y="20" width="500" height="460" fill="#f0f0f0" stroke="#000" stroke-width="2"/>
  <text x="300" y="50" font-family="Arial" font-size="18" text-anchor="middle" font-weight="bold">Matrix Multiplication Unit</text>
  
  <!-- Processing Elements (PE) 4x4 grid -->
  <!-- Row 1 -->
  <rect x="150" y="80" width="60" height="60" fill="#d5f5e3" stroke="#000" stroke-width="1"/>
  <text x="180" y="115" font-family="Arial" font-size="14" text-anchor="middle" font-weight="bold">PE</text>
  
  <rect x="230" y="80" width="60" height="60" fill="#d5f5e3" stroke="#000" stroke-width="1"/>
  <text x="260" y="115" font-family="Arial" font-size="14" text-anchor="middle" font-weight="bold">PE</text>
  
  <rect x="310" y="80" width="60" height="60" fill="#d5f5e3" stroke="#000" stroke-width="1"/>
  <text x="340" y="115" font-family="Arial" font-size="14" text-anchor="middle" font-weight="bold">PE</text>
  
  <rect x="390" y="80" width="60" height="60" fill="#d5f5e3" stroke="#000" stroke-width="1"/>
  <text x="420" y="115" font-family="Arial" font-size="14" text-anchor="middle" font-weight="bold">PE</text>
  
  <!-- Row 2 -->
  <rect x="150" y="160" width="60" height="60" fill="#d5f5e3" stroke="#000" stroke-width="1"/>
  <text x="180" y="195" font-family="Arial" font-size="14" text-anchor="middle" font-weight="bold">PE</text>
  
  <rect x="230" y="160" width="60" height="60" fill="#d5f5e3" stroke="#000" stroke-width="1"/>
  <text x="260" y="195" font-family="Arial" font-size="14" text-anchor="middle" font-weight="bold">PE</text>
  
  <rect x="310" y="160" width="60" height="60" fill="#d5f5e3" stroke="#000" stroke-width="1"/>
  <text x="340" y="195" font-family="Arial" font-size="14" text-anchor="middle" font-weight="bold">PE</text>
  
  <rect x="390" y="160" width="60" height="60" fill="#d5f5e3" stroke="#000" stroke-width="1"/>
  <text x="420" y="195" font-family="Arial" font-size="14" text-anchor="middle" font-weight="bold">PE</text>
  
  <!-- Row 3 -->
  <rect x="150" y="240" width="60" height="60" fill="#d5f5e3" stroke="#000" stroke-width="1"/>
  <text x="180" y="275" font-family="Arial" font-size="14" text-anchor="middle" font-weight="bold">PE</text>
  
  <rect x="230" y="240" width="60" height="60" fill="#d5f5e3" stroke="#000" stroke-width="1"/>
  <text x="260" y="275" font-family="Arial" font-size="14" text-anchor="middle" font-weight="bold">PE</text>
  
  <rect x="310" y="240" width="60" height="60" fill="#d5f5e3" stroke="#000" stroke-width="1"/>
  <text x="340" y="275" font-family="Arial" font-size="14" text-anchor="middle" font-weight="bold">PE</text>
  
  <rect x="390" y="240" width="60" height="60" fill="#d5f5e3" stroke="#000" stroke-width="1"/>
  <text x="420" y="275" font-family="Arial" font-size="14" text-anchor="middle" font-weight="bold">PE</text>
  
  <!-- Row 4 -->
  <rect x="150" y="320" width="60" height="60" fill="#d5f5e3" stroke="#000" stroke-width="1"/>
  <text x="180" y="355" font-family="Arial" font-size="14" text-anchor="middle" font-weight="bold">PE</text>
  
  <rect x="230" y="320" width="60" height="60" fill="#d5f5e3" stroke="#000" stroke-width="1"/>
  <text x="260" y="355" font-family="Arial" font-size="14" text-anchor="middle" font-weight="bold">PE</text>
  
  <rect x="310" y="320" width="60" height="60" fill="#d5f5e3" stroke="#000" stroke-width="1"/>
  <text x="340" y="355" font-family="Arial" font-size="14" text-anchor="middle" font-weight="bold">PE</text>
  
  <rect x="390" y="320" width="60" height="60" fill="#d5f5e3" stroke="#000" stroke-width="1"/>
  <text x="420" y="355" font-family="Arial" font-size="14" text-anchor="middle" font-weight="bold">PE</text>
  
  <!-- Vertical connection lines -->
  <line x1="180" y1="140" x2="180" y2="160" stroke="#000" stroke-width="1.5"/>
  <line x1="260" y1="140" x2="260" y2="160" stroke="#000" stroke-width="1.5"/>
  <line x1="340" y1="140" x2="340" y2="160" stroke="#000" stroke-width="1.5"/>
  <line x1="420" y1="140" x2="420" y2="160" stroke="#000" stroke-width="1.5"/>
  
  <line x1="180" y1="220" x2="180" y2="240" stroke="#000" stroke-width="1.5"/>
  <line x1="260" y1="220" x2="260" y2="240" stroke="#000" stroke-width="1.5"/>
  <line x1="340" y1="220" x2="340" y2="240" stroke="#000" stroke-width="1.5"/>
  <line x1="420" y1="220" x2="420" y2="240" stroke="#000" stroke-width="1.5"/>
  
  <line x1="180" y1="300" x2="180" y2="320" stroke="#000" stroke-width="1.5"/>
  <line x1="260" y1="300" x2="260" y2="320" stroke="#000" stroke-width="1.5"/>
  <line x1="340" y1="300" x2="340" y2="320" stroke="#000" stroke-width="1.5"/>
  <line x1="420" y1="300" x2="420" y2="320" stroke="#000" stroke-width="1.5"/>
  
  <!-- Register Banks -->
  <rect x="100" y="400" width="180" height="30" fill="#d4e6f1" stroke="#000" stroke-width="1"/>
  <text x="190" y="420" font-family="Arial" font-size="14" text-anchor="middle" font-weight="bold">Input Registers</text>
  
  <rect x="320" y="400" width="180" height="30" fill="#d4e6f1" stroke="#000" stroke-width="1"/>
  <text x="410" y="420" font-family="Arial" font-size="14" text-anchor="middle" font-weight="bold">Output Registers</text>
  
  <!-- Control Logic -->
  <rect x="100" y="440" width="400" height="30" fill="#ebdef0" stroke="#000" stroke-width="1"/>
  <text x="300" y="460" font-family="Arial" font-size="14" text-anchor="middle" font-weight="bold">Control Logic</text>
  
  <!-- Note at the bottom -->
  <text x="300" y="490" font-family="Arial" font-size="12" text-anchor="middle" font-style="italic">PE = Processing Element (16-bit multiplier + accumulator)</text>
</svg>
